<svg width="111" height="33" viewBox="0 0 111 33" fill="none" xmlns="http://www.w3.org/2000/svg">
<path d="M14.3562 8.05273C17.1069 8.05273 19.2105 8.80957 20.6672 10.3232C22.1321 11.8288 22.8645 14.0057 22.8645 16.854C22.8645 19.7023 22.1239 21.8996 20.6428 23.4458C19.1698 24.9839 17.0743 25.7529 14.3562 25.7529H8.6311V8.05273H14.3562ZM14.3562 23.6289C16.3093 23.6289 17.7986 23.0552 18.824 21.9077C19.8494 20.7521 20.3621 19.0675 20.3621 16.854C20.3621 14.673 19.8534 13.0169 18.8362 11.8857C17.8189 10.7464 16.3256 10.1768 14.3562 10.1768H11.0359V23.6289H14.3562Z" fill="#212121"/>
<path d="M42.8352 14.3271C43.3072 13.7982 43.8525 13.3913 44.4709 13.1064C45.0976 12.8216 45.773 12.6792 46.4973 12.6792C48.2958 12.6792 49.6833 13.2367 50.6599 14.3516C51.6446 15.4665 52.137 17.0493 52.137 19.1001C52.137 21.2323 51.5551 22.9087 50.3914 24.1294C49.2276 25.342 47.6122 25.9482 45.5452 25.9482C44.6581 25.9482 43.7507 25.8587 42.823 25.6797C41.9034 25.4925 41.1262 25.2484 40.4915 24.9473V7.00293H42.8352V14.3271ZM46.3386 14.7544C45.4923 14.7544 44.7558 14.9741 44.1292 15.4136C43.5025 15.853 43.0712 16.4674 42.8352 17.2568V23.397C43.6165 23.7144 44.5116 23.873 45.5208 23.873C46.8554 23.873 47.893 23.4539 48.6335 22.6157C49.3741 21.7775 49.7444 20.6056 49.7444 19.1001C49.7444 17.7166 49.4473 16.6465 48.8533 15.8896C48.2592 15.1328 47.421 14.7544 46.3386 14.7544Z" fill="#212121"/>
<path d="M59.5833 12.7036C61.1864 12.7036 62.4194 13.1268 63.282 13.9731C64.1528 14.8114 64.5881 16.0117 64.5881 17.5742V25.7529H62.7815L62.4397 24.2515C61.1864 25.4152 59.7786 25.9971 58.2161 25.9971C56.9303 25.9971 55.9089 25.6512 55.1521 24.9595C54.3953 24.2677 54.0168 23.34 54.0168 22.1763C54.0168 20.8254 54.5702 19.7715 55.677 19.0146C56.7838 18.2578 58.3381 17.8794 60.3401 17.8794H62.2322V17.5254C62.1671 15.6943 61.2271 14.7788 59.4124 14.7788C58.859 14.7788 58.2364 14.8643 57.5447 15.0352C56.8529 15.1979 56.1571 15.4217 55.4573 15.7065L54.8103 13.8022C55.559 13.4523 56.3484 13.1838 57.1785 12.9966C58.0167 12.8013 58.8183 12.7036 59.5833 12.7036ZM60.4866 19.6738C59.1845 19.6738 58.1713 19.8895 57.447 20.3208C56.7227 20.744 56.3606 21.3381 56.3606 22.103C56.3606 22.689 56.56 23.1406 56.9587 23.458C57.3575 23.7673 57.915 23.9219 58.6311 23.9219C59.3147 23.9219 59.982 23.7795 60.6331 23.4946C61.2841 23.2017 61.8171 22.811 62.2322 22.3228V19.6738H60.4866Z" fill="#212121"/>
<path d="M72.6936 12.7036C74.2968 12.7036 75.5297 13.1268 76.3923 13.9731C77.2631 14.8114 77.6985 16.0117 77.6985 17.5742V25.7529H75.8918L75.55 24.2515C74.2968 25.4152 72.8889 25.9971 71.3264 25.9971C70.0406 25.9971 69.0193 25.6512 68.2625 24.9595C67.5056 24.2677 67.1272 23.34 67.1272 22.1763C67.1272 20.8254 67.6806 19.7715 68.7874 19.0146C69.8941 18.2578 71.4485 17.8794 73.4504 17.8794H75.3425V17.5254C75.2774 15.6943 74.3375 14.7788 72.5227 14.7788C71.9693 14.7788 71.3468 14.8643 70.655 15.0352C69.9633 15.1979 69.2675 15.4217 68.5676 15.7065L67.9207 13.8022C68.6694 13.4523 69.4587 13.1838 70.2888 12.9966C71.127 12.8013 71.9286 12.7036 72.6936 12.7036ZM73.5969 19.6738C72.2948 19.6738 71.2817 19.8895 70.5574 20.3208C69.8331 20.744 69.4709 21.3381 69.4709 22.103C69.4709 22.689 69.6703 23.1406 70.0691 23.458C70.4679 23.7673 71.0253 23.9219 71.7415 23.9219C72.425 23.9219 73.0924 23.7795 73.7434 23.4946C74.3944 23.2017 74.9275 22.811 75.3425 22.3228V19.6738H73.5969Z" fill="#212121"/>
<path d="M88.5261 25.3257C87.5577 25.7082 86.6584 25.8994 85.8284 25.8994C84.5914 25.8994 83.6474 25.582 82.9963 24.9473C82.3534 24.3044 82.032 23.3644 82.032 22.1274V14.9253H79.7859V12.8989H82.1541L82.6545 9.22461H84.3879V12.8989H88.3064V14.9253H84.3879V21.749C84.3879 22.4814 84.5304 23.0063 84.8152 23.3237C85.1082 23.6411 85.5883 23.7998 86.2556 23.7998C86.8416 23.7998 87.4519 23.694 88.0867 23.4824L88.5261 25.3257Z" fill="#212121"/>
<path d="M96.2776 12.6548C98.2063 12.6548 99.7037 13.2407 100.77 14.4126C101.836 15.5763 102.369 17.208 102.369 19.3076C102.369 21.4072 101.836 23.0389 100.77 24.2026C99.7037 25.3664 98.2063 25.9482 96.2776 25.9482C94.3407 25.9482 92.8393 25.3664 91.7732 24.2026C90.7071 23.0389 90.1741 21.4072 90.1741 19.3076C90.1741 17.208 90.7071 15.5763 91.7732 14.4126C92.8393 13.2407 94.3407 12.6548 96.2776 12.6548ZM96.2776 14.73C95.0732 14.73 94.1536 15.1206 93.5188 15.9019C92.8922 16.6831 92.5789 17.8184 92.5789 19.3076C92.5789 20.7887 92.8922 21.9199 93.5188 22.7012C94.1536 23.4824 95.0732 23.873 96.2776 23.873C97.4739 23.873 98.3894 23.4824 99.0242 22.7012C99.6589 21.9199 99.9763 20.7887 99.9763 19.3076C99.9763 17.8265 99.6589 16.6953 99.0242 15.9141C98.3894 15.1247 97.4739 14.73 96.2776 14.73Z" fill="#212121"/>
<path d="M31.1196 25.7318C29.834 25.7318 28.5773 25.3506 27.5083 24.6364C26.4394 23.9221 25.6063 22.907 25.1143 21.7192C24.6224 20.5315 24.4936 19.2246 24.7444 17.9637C24.9953 16.7028 25.6143 15.5446 26.5234 14.6356C27.4324 13.7266 28.5906 13.1075 29.8515 12.8567C31.1123 12.6059 32.4193 12.7346 33.607 13.2266C34.7947 13.7186 35.8099 14.5517 36.5241 15.6206C37.2383 16.6895 37.6196 17.9462 37.6196 19.2318H35.3915C35.3915 18.3869 35.1409 17.561 34.6715 16.8585C34.2021 16.1559 33.5349 15.6084 32.7543 15.2851C31.9738 14.9617 31.1148 14.8771 30.2861 15.042C29.4575 15.2068 28.6963 15.6137 28.0989 16.2111C27.5014 16.8085 27.0946 17.5697 26.9297 18.3984C26.7649 19.2271 26.8495 20.086 27.1728 20.8666C27.4962 21.6472 28.0437 22.3144 28.7462 22.7838C29.4487 23.2532 30.2747 23.5037 31.1196 23.5037V25.7318Z" fill="#212121"/>
<path d="M37.4511 20.7029C37.177 21.8829 36.5787 22.9628 35.7237 23.8208C34.8686 24.6788 33.7907 25.2808 32.6117 25.5589L32.1003 23.3903C32.8751 23.2076 33.5835 22.8119 34.1455 22.248C34.7074 21.6841 35.1006 20.9744 35.2807 20.1989L37.4511 20.7029Z" fill="#0014CB"/>
</svg>
