<svg width="64" height="64" viewBox="0 0 64 64" fill="none" xmlns="http://www.w3.org/2000/svg">
<g clip-path="url(#clip0_23_105)">
<path d="M15.3949 54.6724C14.8426 55.629 15.1677 56.8592 16.161 57.3423C19.9918 59.2053 24.2036 60.1799 28.4807 60.1814C33.426 60.1831 38.2847 58.8839 42.5691 56.4142C46.8536 53.9445 50.413 50.3912 52.89 46.111C55.367 41.8308 56.6746 36.9743 56.6814 32.029C56.6881 27.0838 55.3939 22.2237 52.9286 17.9368C50.4633 13.6498 46.9137 10.0868 42.6361 7.60531C38.3584 5.12387 33.5033 3.81134 28.558 3.79948C24.2809 3.78921 20.0665 4.75222 16.2306 6.60478C15.2359 7.08514 14.9075 8.3144 15.4571 9.2725L19.0301 15.5004C19.5798 16.4585 20.7986 16.7775 21.8146 16.3441C23.9313 15.4409 26.216 14.9739 28.5312 14.9795C31.5153 14.9866 34.445 15.7786 37.0262 17.276C39.6074 18.7733 41.7493 20.9233 43.2369 23.5102C44.7245 26.097 45.5054 29.0296 45.5014 32.0137C45.4973 34.9978 44.7083 37.9283 43.2136 40.511C41.7189 43.0938 39.5711 45.2379 36.9858 46.7281C34.4005 48.2184 31.4686 49.0024 28.4846 49.0014C26.1694 49.0006 23.886 48.5273 21.7717 47.6183C20.757 47.1821 19.5372 47.4978 18.9849 48.4544L15.3949 54.6724Z" fill="white"/>
<circle cx="28.5" cy="32.5" r="8.5" fill="#0945EC"/>
</g>
<defs>
<clipPath id="clip0_23_105">
<rect width="64" height="64" rx="12" fill="white"/>
</clipPath>
</defs>
</svg>
